# xmcd
#
# Track frame offsets:
# 150
# 31846
# 63541
# 85960
# 112179
# 137297
# 149310
# 176888
#
# Disc length: 2706 seconds
#
# Revision: 0
# Processed by: cddbd v1.5.1PL0 Copyright (c) Steve Scherf et al.
# Submitted via: Audion 3.0.2 (http://www.panic.com/audion/)
#
DISCID=6f0a9008
DTITLE=DJ Thex2 -  
DYEAR=1900
DGENRE=
TTITLE0=*
TTITLE1=*
TTITLE2=*
TTITLE3=*
TTITLE4=*
TTITLE5=*
TTITLE6=*
TTITLE7=*
EXTD=
EXTT0=
EXTT1=
EXTT2=
EXTT3=
EXTT4=
EXTT5=
EXTT6=
EXTT7=
PLAYORDER=
